<?xml version="1.0" encoding="utf-8"?>
<!-- Generator: Adobe Illustrator 26.0.1, SVG Export Plug-In . SVG Version: 6.00 Build 0)  -->
<svg version="1.1" id="Layer_1" xmlns="http://www.w3.org/2000/svg" xmlns:xlink="http://www.w3.org/1999/xlink" x="0px" y="0px"
	 viewBox="0 0 115.5 78.3" style="enable-background:new 0 0 115.5 78.3;" xml:space="preserve">
<style type="text/css">
	.st0{fill:#0EBED9;}
	.st1{fill:#17CFC3;}
	.st2{fill:none;}
</style>
<g>
	<path id="Path_11" class="st0" d="M55.7,5.1H57V0h-2.3c-5.6,0-8.6,3.4-8.6,9.2v1.4h-9.9V9.2c0-2.4,1-4.1,4.2-4.1h1.2V0h-2.3
		c-5.6,0-8.6,3.4-8.6,9.2v1.4H27v4.3h3.7v15.3h5.5V14.9h9.9v21.8l5.5-1.8v-20h4.3v-4.3h-4.3V9.2C51.6,6.8,52.6,5.1,55.7,5.1z
		 M17.1,1.3h-6.3L0,30.2h6.2l2.3-6.9h10.8l2.3,6.9h6.1L17.1,1.3z M10.2,18.2l3.7-10.9l3.7,10.9H10.2z"/>
	<g id="Group_9" transform="translate(2.686 2.177)">
		<path id="Path_9" class="st1" d="M43.4,37.2v30.6h5.5V35.4L43.4,37.2z M58.2,38.2C58.2,38.2,58.2,38.2,58.2,38.2
			c-1.9,0-3.5,1.4-3.5,3.3c0,1.9,1.6,3.3,3.4,3.3h0.1c1.9,0,3.4-1.4,3.5-3.3v0C61.6,39.6,60.1,38.1,58.2,38.2z M60.9,48.2h-5.5v19.6
			h5.5 M68,59.3 M79.2,47.7c-1.9,0-5,1.1-5.9,3.7v-3.2H68v19.4c0,0,0,0,0,0.1c0,0,0,0,0,0c0,0,0,0,0,0v0h5.3V57.5
			c0-3.6,2.4-4.6,4.4-4.6c1.9,0,3.7,1.4,3.7,4.4v10.4h5.5V57C87,51.2,84.3,47.7,79.2,47.7z M103.5,56.8l7.6-8.6h-7l-4.9,6V37.6h-5.5
			v30.2h5.5v-8.5l6.9,8.5h6.8L103.5,56.8z"/>
		<g id="Path_5" transform="translate(12.166 23.937)">
			<path class="st2" d="M55.9,35.3"/>
			<path class="st2" d="M48.7,43.8L48.7,43.8l0,0.1c0,1.9,1.6,3.5,3.6,3.5c2,0,3.6-1.6,3.6-3.5v-0.1c0,0,0,0,0,0c0,0,0,0,0,0
				c0,0,0-0.1,0-0.1v-8.4c1,0.4,1.8,1,2.6,1.8c1.6,1.6,2.7,3.8,2.7,6.3c0,0.2,0,0.3,0,0.4c-0.1,2-0.9,3.8-2.1,5.2
				c-0.2,0.2-0.4,0.4-0.6,0.6c-0.2,0.2-0.4,0.4-0.6,0.6c-0.1,0.1-0.2,0.2-0.4,0.3c-1,0.7-2,1.2-3.2,1.5c-0.4,0.1-0.8,0.2-1.2,0.2
				c-0.3,0-0.6,0-0.9,0c-0.2,0-0.3,0-0.5,0c-0.3,0-0.6,0-0.9-0.1c-4.3-0.6-7.6-4.2-7.6-8.7c0-0.4,0-0.7,0-1.1c0.4-3.3,2.5-6,5.5-7.2
				l0,0c0.9-0.4,1.9-0.6,2.9-0.6c-1,0.1-2,0.3-2.9,0.7"/>
			<path class="st1" d="M48.7,43.8"/>
			<path class="st1" d="M48.7,44c0,1.9,1.6,3.5,3.5,3.5c2,0,3.6-1.6,3.6-3.5v-0.1c0,0,0,0,0,0c0,0,0,0,0,0c0,0,0-0.1,0-0.1v-8.4
				c1,0.4,1.8,1,2.6,1.8c1.6,1.6,2.7,3.8,2.7,6.3c0,0.2,0,0.3,0,0.4c-0.1,2-0.9,3.8-2.1,5.2c-0.2,0.2-0.4,0.4-0.6,0.6
				c-0.2,0.2-0.4,0.4-0.6,0.6c-0.1,0.1-0.2,0.2-0.4,0.3c-1,0.7-2.1,1.2-3.2,1.5c-0.4,0.1-0.8,0.2-1.2,0.2c-0.3,0-0.6,0-0.9,0
				c-0.2,0-0.3,0-0.5,0c-0.3,0-0.6,0-0.9-0.1c-4.1-0.6-7.3-4.1-7.6-8.3c0-0.1,0-0.3,0-0.5c0-3.7,2.3-6.8,5.5-8.2c0,0,0,0,0,0"/>
		</g>
	</g>
</g>
</svg>
